<?xml version="1.0" encoding="utf-8"?>
<!-- Generator: Adobe Illustrator 19.2.1, SVG Export Plug-In . SVG Version: 6.00 Build 0)  -->
<svg version="1.1" id="Layer_1" xmlns="http://www.w3.org/2000/svg" xmlns:xlink="http://www.w3.org/1999/xlink" x="0px" y="0px"
	 viewBox="0 0 126 75.7" style="enable-background:new 0 0 126 75.7;" xml:space="preserve">
<style type="text/css">
	.st0{fill:#EC2027;}
	.st1{fill:#FFFFFF;stroke:#FFFFFF;stroke-width:0.1259;}
	.st2{fill:#FFFFFF;}
</style>
<rect class="st0" width="126" height="75.7"/>
<g>
	<path class="st1" d="M104.3,30.1c0-1,0.8-1.8,1.8-1.8c1,0,1.8,0.8,1.8,1.8c0,1-0.8,1.8-1.8,1.8C105.2,32,104.3,31.2,104.3,30.1z
		 M106.2,31.7c0.8,0,1.5-0.6,1.5-1.5c0-0.9-0.7-1.5-1.5-1.5c-0.8,0-1.5,0.6-1.5,1.5C104.7,31,105.3,31.7,106.2,31.7z M105.8,31.2
		h-0.3v-2.1h0.8c0.5,0,0.7,0.2,0.7,0.6c0,0.4-0.2,0.5-0.5,0.6l0.6,0.9h-0.4l-0.6-0.9h-0.4C105.8,30.3,105.8,31.2,105.8,31.2z
		 M106.2,30c0.3,0,0.5,0,0.5-0.3c0-0.3-0.2-0.3-0.5-0.3h-0.4V30H106.2z"/>
	<g>
		<path class="st2" d="M43.4,40.5c0,1.1,0.3,2.1,0.8,2.7c0.4,0.4,0.9,0.8,1.9,0.9l4.1,0l0.1,0l0-2.8v-0.1h-1.6
			c-0.3,0-0.5-0.2-0.5-0.5v-9.5h2.2v-3.1h-2.2v-4.2h-4.8v4.2h-2.2v3.1l2.2,0V40.5z"/>
		<path class="st2" d="M51.1,33.5l0,10.4V44h4.6l0-10l0-0.1c0-0.5,0-0.9,0.3-1.3c0.4-0.6,1.1-0.8,2.1-0.7c0.4,0.1,0.6,0.1,0.9,0.2
			l0.1,0V32c0,0,0-3.3,0-3.6v0l0,0c-0.3-0.1-2.4,0-3.6,1.1c0-0.3-0.1-0.9-0.1-1.1l-0.1,0l0,0l0.1,0v-0.1h-4.4l0,0.1
			C51.1,29.6,51.2,31.5,51.1,33.5z"/>
		<rect x="22.3" y="22.2" class="st2" width="5.2" height="5"/>
		<rect x="22.3" y="28.1" class="st2" width="5.2" height="15.9"/>
		<path class="st2" d="M29.3,31.8l0,12.2V44l4.7,0h0.1V44c0-0.5,0-12.9,0-13.1c0-0.1,0-0.2,0.1-0.3c0.1-0.1,0.4-0.2,0.9-0.2
			c0.6,0,0.9,0.1,0.9,0.5c0,1.5,0,12.9,0,13V44h5.2l0-0.1c-0.1-0.6-0.1-1-0.2-1.7c0-0.2,0-0.4,0-0.7c0-0.4,0-2,0-3.9
			c0-3.4,0-7.7-0.2-8.1c-0.2-0.5-0.5-0.9-1-1.1c-1.1-0.6-2.6-0.7-4.1-0.5c-0.8,0.1-1.3,0.5-1.8,0.9c0-0.1,0-0.1,0-0.2
			c0-0.2,0-0.3-0.1-0.4l0,0l-4.6,0l0,0.1C29.3,29.5,29.4,30.6,29.3,31.8z"/>
		<path class="st2" d="M60.2,43.5c0.7,0.7,1.5,0.8,2.3,0.8c0.1,0,0.2,0,0.3,0c0.2,0,0.3,0,0.5,0c0.8,0,2.1-0.1,2.8-0.9
			c0,0.1,0,0.2,0,0.3c0,0.1,0,0.3,0.1,0.4l0,0l4.9,0l0.1,0l0-0.1c0-0.2-0.1-0.4-0.1-0.6c-0.1-0.6-0.2-1.2-0.2-1.8l0-3.6
			c0-0.3,0.1-6.2,0-6.8c-0.1-0.7-0.6-1.8-1.5-2.3c-1.2-0.6-2.6-0.9-4.3-0.9c-0.1,0-0.1,0-0.2,0c-1.6,0.1-4.1,0.3-5,2.4
			c-0.3,0.8-0.2,1.7-0.2,2.6c0,0.2,0,0.4,0,0.6l0,0.1l4.8,0l0-0.1c0,0,0-2,0.1-3c0-0.2,0.2-0.3,0.3-0.4c0.3-0.1,0.8-0.1,1,0.1
			c0.1,0.1,0.2,0.2,0.2,0.4v3c0,0.7-0.7,0.9-1,0.9c-0.5,0.1-1,0.1-1.5,0.1c-0.9,0-1.9,0-2.7,0.4c-0.8,0.4-1.3,1.3-1.3,2.2l0,4.1
			l0,0.1C59.6,42.3,59.7,43,60.2,43.5z M64.3,37.3L64.3,37.3c0-0.2,0-0.3,0.3-0.4c0.3-0.2,0.6-0.2,1.3-0.2h0.2V41l0,0.1
			c0,0.3,0,0.5-0.4,0.6c-0.2,0-0.3,0-0.4,0.1c-0.3,0.1-0.5,0.1-0.6,0c-0.1-0.1-0.2-0.2-0.2-0.5c0-0.3,0-0.5,0-0.8
			C64.3,39.2,64.2,37.9,64.3,37.3z"/>
		<rect x="72.3" y="22.1" class="st2" width="5.1" height="21.9"/>
		<polygon class="st2" points="100.9,35.6 103.8,28.3 103.9,28.2 98.5,28.2 98.5,28.2 97,33.4 95.4,28.2 95.4,28.2 90.3,28.2 
			90.2,28.2 93.3,36.1 90.2,43.9 90.1,44 95.4,44 95.4,44 97,38.2 98.8,43.9 98.8,44 104,44 104.1,44 		"/>
		<path class="st2" d="M98.9,45.1c-1.8,0-3.4,1.2-3.9,2.9l-4.2,0.7l-0.2-1.4c0-0.2-0.1-0.3-0.3-0.4c-0.1-0.1-0.3-0.2-0.5-0.1l-0.1,0
			c-0.4,0.1-0.6,0.4-0.6,0.8l0.2,1.4l-5.9,1l-0.2-1.4c-0.1-0.4-0.4-0.6-0.8-0.6l-0.1,0c-0.4,0.1-0.6,0.4-0.6,0.8l0.2,1.4l-4,0.6
			c-0.8-1-2-1.6-3.3-1.6c-1.2,0-2.4,0.5-3.2,1.5l-4.2-0.7l0.2-1.4c0.1-0.4-0.2-0.7-0.6-0.8l-0.1,0c-0.4-0.1-0.7,0.2-0.8,0.6
			l-0.2,1.4l-5.9-1l0.2-1.4c0.1-0.4-0.2-0.7-0.6-0.8l-0.1,0c-0.2,0-0.4,0-0.5,0.1c-0.2,0.1-0.3,0.3-0.3,0.5l-0.2,1.4l-4-0.7
			c-0.6-1.6-2.1-2.6-3.8-2.6c-1.7,0-3.3,1.1-3.9,2.7l-4.1,0.7L42.6,47c-0.1-0.4-0.4-0.6-0.8-0.6l-0.1,0c-0.4,0.1-0.6,0.4-0.6,0.8
			l0.2,1.4l-5.9,1l-0.2-1.4c-0.1-0.4-0.4-0.6-0.8-0.6l-0.1,0c-0.4,0.1-0.6,0.4-0.6,0.8l0.2,1.4l-4,0.6c-0.8-1-2-1.7-3.3-1.7
			c-2.3,0-4.1,1.9-4.1,4.2c0,2.3,1.9,4.1,4.1,4.1c1.8,0,3.4-1.1,3.9-2.8l4-0.7l0.2,1.4c0.1,0.4,0.4,0.6,0.8,0.6l0.1,0
			c0.4-0.1,0.6-0.4,0.6-0.8l-0.2-1.4l5.9-1l0.2,1.4c0.1,0.4,0.4,0.6,0.8,0.6l0.1,0c0.4-0.1,0.6-0.4,0.6-0.8l-0.2-1.4l3.9-0.6
			c0.8,1.1,2.1,1.8,3.4,1.8c1.4,0,2.7-0.7,3.5-1.9l3.7,0.6l-0.2,1.4c-0.1,0.4,0.2,0.7,0.6,0.8l0.1,0c0.4,0,0.7-0.2,0.8-0.6l0.2-1.4
			l5.9,1l-0.2,1.4c-0.1,0.4,0.2,0.7,0.6,0.8l0.1,0c0.4,0.1,0.7-0.2,0.8-0.6l0.2-1.4l4,0.7c0.5,1.8,2.1,3,4,3c1.8,0,3.4-1.1,3.9-2.9
			l3.9-0.6l0.2,1.4c0.1,0.4,0.4,0.6,0.8,0.6l0.1,0c0.4-0.1,0.6-0.4,0.6-0.8L84,53.6l5.9-1l0.2,1.4c0.1,0.4,0.4,0.6,0.8,0.6l0.1,0
			c0.2,0,0.3-0.1,0.4-0.3c0.1-0.1,0.1-0.3,0.1-0.5l-0.2-1.4l4.2-0.7c0.8,1,2,1.6,3.3,1.6c2.3,0,4.1-1.9,4.1-4.1
			C103,46.9,101.2,45.1,98.9,45.1z M100,49.2c0,0.6-0.5,1.2-1.2,1.2s-1.2-0.5-1.2-1.2c0-0.6,0.5-1.2,1.2-1.2S100,48.6,100,49.2z
			 M75.9,53.2c0,0.6-0.5,1.2-1.2,1.2c-0.6,0-1.2-0.5-1.2-1.2s0.5-1.2,1.2-1.2C75.4,52,75.9,52.6,75.9,53.2z M51.9,49.2
			c0,0.6-0.5,1.2-1.2,1.2c-0.6,0-1.2-0.5-1.2-1.2c0-0.6,0.5-1.2,1.2-1.2C51.4,48.1,51.9,48.6,51.9,49.2z M27.8,53
			c0,0.3-0.1,0.6-0.3,0.8c-0.2,0.2-0.5,0.3-0.8,0.3c-0.6,0-1.2-0.5-1.2-1.2c0-0.6,0.5-1.2,1.2-1.2C27.3,51.8,27.8,52.4,27.8,53z"/>
		<path class="st2" d="M82.9,44.2c0.6,0,1.2,0.1,1.7,0.1c1.6,0,2.9-0.2,4-0.7c0.9-0.4,1.6-1.3,1.6-2.3l0-9.9c0-1.2-0.4-2.1-1.4-2.5
			c-1-0.5-2.2-0.8-3.7-0.8c-2.2-0.1-3.8,0.2-5,1c-0.8,0.5-1.2,1.4-1.2,2.5l0,9.8c0,0.6,0.2,1.2,0.7,1.7C80.6,43.8,81.8,44,82.9,44.2
			z M85.5,41.5c0,0.2-0.1,0.3-0.2,0.4c-0.4,0.2-0.9,0.2-1.3,0c-0.1-0.1-0.2-0.2-0.2-0.4v-0.1l0-0.1V30.8l0,0v-0.1
			c0-0.2,0.1-0.3,0.2-0.4c0.4-0.2,0.9-0.2,1.3-0.1c0.1,0.1,0.2,0.2,0.2,0.4V41.5z"/>
	</g>
</g>
</svg>
